<?xml version="1.0" ?><svg data-name="Layer 1" id="Layer_1" viewBox="0 0 272 272" xmlns="http://www.w3.org/2000/svg"><defs><style>.cls-1{fill:#564c4d;}</style></defs><title/><path class="cls-1" d="M257,113.41A36.29,36.29,0,0,0,239.19,102a47.19,47.19,0,0,0,.81-8.63C240,66.12,216.72,44,188,44c-22.36,0-41.41,13.41-48.76,32.22a30.58,30.58,0,0,0-15.24-4c-15.46,0-28,11.06-28,24.7a22.08,22.08,0,0,0,1.52,8c-.68.36-1.35.74-2,1.14a21.42,21.42,0,0,0-9-12.89,22.86,22.86,0,0,0,1.46-8C88,71.28,75.46,60,60,60S32,71.28,32,85.2a22.61,22.61,0,0,0,.29,3.6H32c-13.25,0-24,9.67-24,21.6a20.53,20.53,0,0,0,7,15.27A25.35,25.35,0,0,0,32,132H72a26.48,26.48,0,0,0,8-1.24c0,.49,0,1,0,1.48A29.94,29.94,0,0,0,90.54,154.7,38.49,38.49,0,0,0,116,164H228c19.88,0,36-14.22,36-31.76A29.24,29.24,0,0,0,257,113.41Zm-169.55-.5a26.08,26.08,0,0,0-1.76,2.2l-.54.77q-.27.39-.51.78c-.17.26-.33.53-.49.79-.33.53-.64,1.08-.91,1.63l-.41.83c-.13.25-.25.5-.36.76A17.59,17.59,0,0,1,72,124H32c-8.82,0-16-6.1-16-13.6s7.18-13.6,16-13.6h9.66l-1.47-9.26A14.47,14.47,0,0,1,40,85.2C40,75.72,49,68,60,68s20,7.72,20,17.2a14.92,14.92,0,0,1-1,5.22l-2.19,5.86L82,99.82a12.9,12.9,0,0,1,6,10.58,10.36,10.36,0,0,1-.2,2.09v0C87.68,112.64,87.56,112.77,87.45,112.91ZM228,156H116c-15.44,0-28-10.66-28-23.76,0-8.26,5-15.8,13.26-20.2l6.3-3.33L105,102.07a14,14,0,0,1-1-5.13c0-9.21,9-16.7,20-16.7a22.66,22.66,0,0,1,11.26,2.92l8,4.62,3.38-8.65C153,62.9,169.63,52,188,52c24.26,0,44,18.58,44,41.41a40,40,0,0,1-.67,7.17L230,107.72l7,2c11.38,3.28,19,12.33,19,22.51C256,145.34,243.44,156,228,156Z"/><path class="cls-1" d="M224,180s-8,3.58-8,8a8,8,0,0,0,16,0C232,183.58,224,180,224,180Z"/><path class="cls-1" d="M184,180s-8,3.58-8,8a8,8,0,0,0,16,0C192,183.58,184,180,184,180Z"/><path class="cls-1" d="M144,180s-8,3.58-8,8a8,8,0,0,0,16,0C152,183.58,144,180,144,180Z"/><path class="cls-1" d="M104,180s-8,3.58-8,8a8,8,0,0,0,16,0C112,183.58,104,180,104,180Z"/><path class="cls-1" d="M64,180s-8,3.58-8,8a8,8,0,0,0,16,0C72,183.58,64,180,64,180Z"/><path class="cls-1" d="M208,212s-8,3.58-8,8a8,8,0,0,0,16,0C216,215.58,208,212,208,212Z"/><path class="cls-1" d="M168,212s-8,3.58-8,8a8,8,0,0,0,16,0C176,215.58,168,212,168,212Z"/><path class="cls-1" d="M128,212s-8,3.58-8,8a8,8,0,0,0,16,0C136,215.58,128,212,128,212Z"/><path class="cls-1" d="M88,212s-8,3.58-8,8a8,8,0,0,0,16,0C96,215.58,88,212,88,212Z"/><path class="cls-1" d="M48,212s-8,3.58-8,8a8,8,0,0,0,16,0C56,215.58,48,212,48,212Z"/></svg>